<svg id="Camada_1" data-name="Camada 1" xmlns="http://www.w3.org/2000/svg" viewBox="0 0 277.24 36"><defs><style>.cls-1{fill:#fff;}.cls-2{fill:#00b4f1;}</style></defs><title>logorecriado</title><path class="cls-1" d="M200.37,17.48a18,18,0,1,0,18,18A18,18,0,0,0,200.37,17.48Zm0,29a11,11,0,1,1,11-11A11,11,0,0,1,200.37,46.48Z" transform="translate(-18.35 -17.48)"/><path class="cls-1" d="M71,17.48a18,18,0,1,0,18,18A18,18,0,0,0,71,17.48Zm0,29a11,11,0,1,1,11-11A11,11,0,0,1,71,46.48Z" transform="translate(-18.35 -17.48)"/><path class="cls-1" d="M30.25,17.48H18.4l0,36h11.9a18,18,0,0,0,0-36Zm-4.9,27.85.12-19.76,9.35-.1a11,11,0,0,1,0,20Z" transform="translate(-18.35 -17.48)"/><path class="cls-1" d="M249.61,39.48a11,11,0,1,1-.45-9h7.49a18,18,0,1,0,.26,9Z" transform="translate(-18.35 -17.48)"/><rect class="cls-1" x="243.02" width="8" height="35"/><polygon class="cls-2" points="277.24 35 264.65 16.88 276.38 0 266.64 0 254.91 16.88 254.91 16.88 254.91 16.88 254.91 16.88 254.91 16.89 267.5 35 277.24 35"/><path class="cls-1" d="M171.6,39.3c10.41-5.38,8.56-20.2-3.79-21.82H151.57V52.36h8.21V41.77h4.94l7.15,10.59h9.7Zm-4.47-5.17h-7.47V25h7.47C171.78,27.13,170.19,33.07,167.13,34.13Z" transform="translate(-18.35 -17.48)"/><polygon class="cls-1" points="72.84 34.88 80.87 34.88 85.19 13.62 94.99 34.88 96.66 34.88 106.81 13.62 111.75 34.88 120.13 34.88 112.9 0 105.4 0 96.49 20.85 95.25 20.94 86.87 0 79.02 0 72.84 34.88"/></svg>